<svg width="22" height="16" viewBox="0 0 22 16" fill="none" xmlns="http://www.w3.org/2000/svg">
<path d="M4.3 15.22C3.40667 15.22 2.62667 15.06 1.96 14.74C1.30667 14.4067 0.746667 13.9467 0.28 13.36L2.38 11.34C2.62 11.6733 2.9 11.9267 3.22 12.1C3.55333 12.2733 3.92667 12.36 4.34 12.36C4.74 12.36 5.08667 12.28 5.38 12.12C5.67333 11.9467 5.90667 11.7067 6.08 11.4C6.25333 11.08 6.34 10.6867 6.34 10.22V0.879999H9.5V10.04C9.5 11.0933 9.28667 12.0067 8.86 12.78C8.43333 13.5533 7.83333 14.1533 7.06 14.58C6.28667 15.0067 5.36667 15.22 4.3 15.22ZM12.0045 15V0.879999H15.1445V15H12.0045ZM14.4245 15V12.24H21.4045V15H14.4245Z" fill="#66CCFF"/>
</svg>
